<?xml version="1.0" encoding="utf-8"?>
<!-- Generator: Adobe Illustrator 24.1.2, SVG Export Plug-In . SVG Version: 6.00 Build 0)  -->
<svg version="1.1" xmlns="http://www.w3.org/2000/svg" xmlns:xlink="http://www.w3.org/1999/xlink" x="0px" y="0px"
	 viewBox="0 0 275 275" style="enable-background:new 0 0 275 275;" xml:space="preserve">
<style type="text/css">
	.st0{opacity:0.8;fill:url(#SVGID_1_);}
	.st1{opacity:0.1;fill:url(#SVGID_2_);}
	.st2{fill:none;stroke:#F09D2D;stroke-width:2;stroke-linecap:round;stroke-miterlimit:10;stroke-dasharray:6,10;}
	.st3{fill:none;stroke:#999B9E;stroke-linecap:round;stroke-linejoin:round;stroke-miterlimit:10;}
	.st4{fill:url(#SVGID_3_);}
	.st5{opacity:0.5;fill:#999B9E;}
	.st6{fill:url(#SVGID_4_);}
	.st7{fill:url(#SVGID_5_);}
	.st8{opacity:0.1;fill:url(#SVGID_6_);}
	.st9{opacity:0.8;fill:url(#SVGID_7_);}
	.st10{fill:url(#SVGID_8_);}
	.st11{fill:url(#SVGID_9_);}
	.st12{opacity:0.1;fill:url(#SVGID_10_);}
	.st13{opacity:0.8;fill:url(#SVGID_11_);}
	.st14{fill:url(#SVGID_12_);}
	.st15{fill:url(#SVGID_13_);}
	.st16{opacity:0.1;fill:url(#SVGID_14_);}
	.st17{opacity:0.8;fill:url(#SVGID_15_);}
	.st18{fill:url(#SVGID_16_);}
	.st19{fill:url(#SVGID_17_);}
	.st20{opacity:0.8;fill:url(#SVGID_18_);}
	.st21{opacity:0.1;fill:url(#SVGID_19_);}
	.st22{fill:url(#SVGID_20_);}
	.st23{fill:url(#SVGID_21_);}
	.st24{opacity:0.1;fill:url(#SVGID_22_);}
	.st25{opacity:0.8;fill:url(#SVGID_23_);}
	.st26{fill:url(#SVGID_24_);}
	.st27{fill:url(#SVGID_25_);}
	.st28{opacity:0.1;fill:url(#SVGID_26_);}
	.st29{opacity:0.8;fill:url(#SVGID_27_);}
	.st30{fill:url(#SVGID_28_);}
	.st31{fill:url(#SVGID_29_);}
	.st32{clip-path:url(#SVGID_31_);}
	.st33{opacity:0.8;fill:url(#SVGID_32_);}
	.st34{fill:none;stroke:#999B9E;stroke-width:0.939;stroke-linecap:round;stroke-linejoin:round;stroke-miterlimit:10;}
	.st35{fill:none;stroke:#999B9E;stroke-width:1.1031;stroke-linecap:round;stroke-linejoin:round;stroke-miterlimit:10;}
	.st36{fill:none;stroke:#999B9E;stroke-width:1.0769;stroke-linecap:round;stroke-linejoin:round;stroke-miterlimit:10;}
	.st37{fill:none;stroke:#999B9E;stroke-width:1.1033;stroke-linecap:round;stroke-linejoin:round;stroke-miterlimit:10;}
	.st38{fill:url(#SVGID_33_);}
	.st39{fill:url(#SVGID_34_);}
	.st40{opacity:0.1;fill:url(#SVGID_35_);}
	.st41{opacity:0.1;fill:url(#SVGID_36_);}
	.st42{clip-path:url(#SVGID_38_);}
	.st43{opacity:0.8;fill:url(#SVGID_39_);}
	.st44{fill:none;stroke:#999B9E;stroke-width:1.0324;stroke-linecap:round;stroke-linejoin:round;stroke-miterlimit:10;}
	.st45{fill:url(#SVGID_40_);}
	.st46{fill:url(#SVGID_41_);}
	.st47{opacity:0.1;fill:url(#SVGID_42_);}
	.st48{opacity:0.1;fill:url(#SVGID_43_);}
	.st49{clip-path:url(#SVGID_45_);}
	.st50{opacity:0.8;fill:url(#SVGID_46_);}
	.st51{fill:url(#SVGID_47_);}
	.st52{fill:url(#SVGID_48_);}
	.st53{opacity:0.1;fill:url(#SVGID_49_);}
	.st54{opacity:0.1;fill:url(#SVGID_50_);}
	.st55{opacity:0.1;fill:url(#SVGID_51_);}
	.st56{opacity:0.1;fill:url(#SVGID_52_);}
	.st57{clip-path:url(#SVGID_54_);}
	.st58{opacity:0.8;fill:url(#SVGID_55_);}
	.st59{fill:none;stroke:#999B9E;stroke-width:0.9691;stroke-linecap:round;stroke-linejoin:round;stroke-miterlimit:10;}
	.st60{fill:none;stroke:#999B9E;stroke-width:1.0454;stroke-linecap:round;stroke-linejoin:round;stroke-miterlimit:10;}
	.st61{fill:url(#SVGID_56_);stroke:#999B9E;stroke-width:0.9691;stroke-linecap:round;stroke-linejoin:round;stroke-miterlimit:10;}
	.st62{fill:url(#SVGID_57_);stroke:#999B9E;stroke-width:0.9691;stroke-linecap:round;stroke-linejoin:round;stroke-miterlimit:10;}
	.st63{fill:url(#SVGID_58_);stroke:#999B9E;stroke-width:0.9691;stroke-linecap:round;stroke-linejoin:round;stroke-miterlimit:10;}
	.st64{fill:url(#SVGID_59_);stroke:#999B9E;stroke-width:0.9691;stroke-linecap:round;stroke-linejoin:round;stroke-miterlimit:10;}
	.st65{fill:url(#SVGID_60_);}
	.st66{fill:url(#SVGID_61_);}
	.st67{clip-path:url(#SVGID_63_);}
	.st68{opacity:0.8;fill:url(#SVGID_64_);}
	.st69{fill:url(#SVGID_65_);stroke:#999B9E;stroke-width:0.9691;stroke-linecap:round;stroke-linejoin:round;stroke-miterlimit:10;}
	.st70{fill:url(#SVGID_66_);stroke:#999B9E;stroke-width:0.9691;stroke-linecap:round;stroke-linejoin:round;stroke-miterlimit:10;}
	.st71{fill:url(#SVGID_67_);stroke:#999B9E;stroke-width:0.9691;stroke-linecap:round;stroke-linejoin:round;stroke-miterlimit:10;}
	.st72{fill:url(#SVGID_68_);stroke:#999B9E;stroke-width:0.9691;stroke-linecap:round;stroke-linejoin:round;stroke-miterlimit:10;}
	.st73{fill:url(#SVGID_69_);}
	.st74{fill:url(#SVGID_70_);}
	.st75{opacity:0.1;fill:url(#SVGID_71_);}
	.st76{opacity:0.1;fill:url(#SVGID_72_);}
	.st77{clip-path:url(#SVGID_74_);}
	.st78{opacity:0.8;fill:url(#SVGID_75_);}
	.st79{fill:url(#SVGID_76_);stroke:#999B9E;stroke-width:0.9691;stroke-linecap:round;stroke-linejoin:round;stroke-miterlimit:10;}
	.st80{fill:url(#SVGID_77_);stroke:#999B9E;stroke-width:0.9691;stroke-linecap:round;stroke-linejoin:round;stroke-miterlimit:10;}
	.st81{fill:url(#SVGID_78_);stroke:#999B9E;stroke-width:0.9691;stroke-linecap:round;stroke-linejoin:round;stroke-miterlimit:10;}
	.st82{fill:url(#SVGID_79_);stroke:#999B9E;stroke-width:0.9691;stroke-linecap:round;stroke-linejoin:round;stroke-miterlimit:10;}
	.st83{fill:none;stroke:#999B9E;stroke-width:1.1076;stroke-linecap:round;stroke-linejoin:round;stroke-miterlimit:10;}
	.st84{fill:url(#SVGID_80_);}
	.st85{fill:url(#SVGID_81_);}
	.st86{opacity:0.1;fill:url(#SVGID_82_);}
	.st87{opacity:0.1;fill:url(#SVGID_83_);}
	.st88{opacity:0.1;fill:url(#SVGID_84_);}
	.st89{opacity:0.1;fill:url(#SVGID_85_);}
	.st90{opacity:0.8;fill:url(#SVGID_86_);}
	.st91{fill:url(#SVGID_87_);}
	.st92{fill:url(#SVGID_88_);}
	.st93{opacity:0.8;fill:url(#SVGID_89_);}
	.st94{fill:url(#SVGID_90_);}
	.st95{fill:url(#SVGID_91_);}
	.st96{opacity:0.1;fill:url(#SVGID_92_);}
	.st97{opacity:0.1;fill:url(#SVGID_93_);}
	.st98{opacity:0.8;fill:url(#SVGID_94_);}
	.st99{fill:url(#SVGID_95_);}
	.st100{fill:url(#SVGID_96_);}
	.st101{opacity:0.1;fill:url(#SVGID_97_);}
	.st102{opacity:0.1;fill:url(#SVGID_98_);}
	.st103{opacity:0.8;clip-path:url(#SVGID_100_);fill:url(#SVGID_101_);}
	.st104{clip-path:url(#SVGID_100_);}
	.st105{fill:url(#SVGID_102_);}
	.st106{fill:url(#SVGID_103_);}
	.st107{opacity:0.1;fill:url(#SVGID_104_);}
	.st108{opacity:0.8;clip-path:url(#SVGID_106_);fill:url(#SVGID_107_);}
	.st109{clip-path:url(#SVGID_106_);}
	.st110{fill:url(#SVGID_108_);}
	.st111{fill:url(#SVGID_109_);}
	.st112{opacity:0.1;fill:url(#SVGID_110_);}
	.st113{clip-path:url(#SVGID_112_);}
	.st114{opacity:0.8;fill:url(#SVGID_113_);}
	.st115{fill:url(#SVGID_114_);}
	.st116{fill:url(#SVGID_115_);}
	.st117{opacity:0.1;fill:url(#SVGID_116_);}
	.st118{clip-path:url(#SVGID_118_);}
	.st119{opacity:0.8;fill:url(#SVGID_119_);}
	.st120{fill:url(#SVGID_120_);}
	.st121{fill:url(#SVGID_121_);}
	.st122{opacity:0.1;fill:url(#SVGID_122_);}
	.st123{clip-path:url(#SVGID_124_);}
	.st124{opacity:0.8;fill:url(#SVGID_125_);}
	.st125{opacity:0.1;fill:url(#SVGID_126_);}
	.st126{fill:url(#SVGID_127_);}
	.st127{fill:url(#SVGID_128_);}
	.st128{opacity:0.1;fill:url(#SVGID_129_);}
	.st129{clip-path:url(#SVGID_131_);}
	.st130{opacity:0.8;fill:url(#SVGID_132_);}
	.st131{fill:url(#SVGID_133_);}
	.st132{fill:url(#SVGID_134_);}
	.st133{opacity:0.1;fill:url(#SVGID_135_);}
	.st134{opacity:0.1;fill:url(#SVGID_136_);}
	.st135{opacity:0.8;fill:url(#SVGID_137_);}
	.st136{fill:url(#SVGID_138_);}
	.st137{fill:url(#SVGID_139_);}
	.st138{opacity:0.8;fill:url(#SVGID_140_);}
	.st139{fill:url(#SVGID_141_);}
	.st140{fill:url(#SVGID_142_);}
	.st141{opacity:0.1;fill:url(#SVGID_143_);}
	.st142{opacity:0.1;fill:url(#SVGID_144_);}
	.st143{opacity:0.8;fill:url(#SVGID_145_);}
	.st144{fill:url(#SVGID_146_);}
	.st145{fill:url(#SVGID_147_);}
	.st146{opacity:0.1;fill:url(#SVGID_148_);}
	.st147{opacity:0.1;fill:url(#SVGID_149_);}
	.st148{clip-path:url(#SVGID_151_);}
	.st149{opacity:0.8;fill:url(#SVGID_152_);}
	.st150{fill:url(#SVGID_153_);}
	.st151{fill:url(#SVGID_154_);}
	.st152{opacity:0.1;fill:url(#SVGID_155_);}
	.st153{opacity:0.1;fill:url(#SVGID_156_);}
	.st154{clip-path:url(#SVGID_158_);}
	.st155{opacity:0.8;fill:url(#SVGID_159_);}
	.st156{fill:url(#SVGID_160_);}
	.st157{fill:url(#SVGID_161_);}
	.st158{opacity:0.1;fill:url(#SVGID_162_);}
	.st159{opacity:0.1;fill:url(#SVGID_163_);}
	.st160{clip-path:url(#SVGID_165_);}
	.st161{opacity:0.8;fill:url(#SVGID_166_);}
	.st162{fill:url(#SVGID_167_);}
	.st163{fill:url(#SVGID_168_);}
	.st164{opacity:0.1;fill:url(#SVGID_169_);}
	.st165{opacity:0.1;fill:url(#SVGID_170_);}
	.st166{opacity:0.1;fill:url(#SVGID_171_);}
	.st167{opacity:0.1;fill:url(#SVGID_172_);}
	.st168{clip-path:url(#SVGID_174_);}
	.st169{opacity:0.8;fill:url(#SVGID_175_);}
	
		.st170{fill:url(#SVGID_176_);stroke:#999B9E;stroke-width:0.9691;stroke-linecap:round;stroke-linejoin:round;stroke-miterlimit:10;}
	
		.st171{fill:url(#SVGID_177_);stroke:#999B9E;stroke-width:0.9691;stroke-linecap:round;stroke-linejoin:round;stroke-miterlimit:10;}
	
		.st172{fill:url(#SVGID_178_);stroke:#999B9E;stroke-width:0.9691;stroke-linecap:round;stroke-linejoin:round;stroke-miterlimit:10;}
	
		.st173{fill:url(#SVGID_179_);stroke:#999B9E;stroke-width:0.9691;stroke-linecap:round;stroke-linejoin:round;stroke-miterlimit:10;}
	.st174{fill:url(#SVGID_180_);}
	.st175{fill:url(#SVGID_181_);}
	.st176{clip-path:url(#SVGID_183_);}
	.st177{opacity:0.8;fill:url(#SVGID_184_);}
	
		.st178{fill:url(#SVGID_185_);stroke:#999B9E;stroke-width:0.9691;stroke-linecap:round;stroke-linejoin:round;stroke-miterlimit:10;}
	
		.st179{fill:url(#SVGID_186_);stroke:#999B9E;stroke-width:0.9691;stroke-linecap:round;stroke-linejoin:round;stroke-miterlimit:10;}
	
		.st180{fill:url(#SVGID_187_);stroke:#999B9E;stroke-width:0.9691;stroke-linecap:round;stroke-linejoin:round;stroke-miterlimit:10;}
	
		.st181{fill:url(#SVGID_188_);stroke:#999B9E;stroke-width:0.9691;stroke-linecap:round;stroke-linejoin:round;stroke-miterlimit:10;}
	.st182{fill:url(#SVGID_189_);}
	.st183{fill:url(#SVGID_190_);}
	.st184{opacity:0.1;fill:url(#SVGID_191_);}
	.st185{opacity:0.1;fill:url(#SVGID_192_);}
	.st186{clip-path:url(#SVGID_194_);}
	.st187{opacity:0.8;fill:url(#SVGID_195_);}
	
		.st188{fill:url(#SVGID_196_);stroke:#999B9E;stroke-width:0.9691;stroke-linecap:round;stroke-linejoin:round;stroke-miterlimit:10;}
	
		.st189{fill:url(#SVGID_197_);stroke:#999B9E;stroke-width:0.9691;stroke-linecap:round;stroke-linejoin:round;stroke-miterlimit:10;}
	
		.st190{fill:url(#SVGID_198_);stroke:#999B9E;stroke-width:0.9691;stroke-linecap:round;stroke-linejoin:round;stroke-miterlimit:10;}
	
		.st191{fill:url(#SVGID_199_);stroke:#999B9E;stroke-width:0.9691;stroke-linecap:round;stroke-linejoin:round;stroke-miterlimit:10;}
	.st192{fill:url(#SVGID_200_);}
	.st193{fill:url(#SVGID_201_);}
	.st194{opacity:0.1;fill:url(#SVGID_202_);}
	.st195{opacity:0.1;fill:url(#SVGID_203_);}
	.st196{opacity:0.8;clip-path:url(#SVGID_205_);fill:url(#SVGID_206_);}
	.st197{clip-path:url(#SVGID_205_);}
	.st198{fill:url(#SVGID_207_);}
	.st199{fill:url(#SVGID_208_);}
	.st200{opacity:0.1;fill:url(#SVGID_209_);}
	.st201{opacity:0.8;clip-path:url(#SVGID_211_);fill:url(#SVGID_212_);}
	.st202{clip-path:url(#SVGID_211_);}
	.st203{fill:url(#SVGID_213_);}
	.st204{fill:url(#SVGID_214_);}
	.st205{opacity:0.1;fill:url(#SVGID_215_);}
	.st206{clip-path:url(#SVGID_217_);}
	.st207{opacity:0.8;fill:url(#SVGID_218_);}
	.st208{opacity:0.1;fill:url(#SVGID_219_);}
	.st209{fill:url(#SVGID_220_);}
	.st210{fill:url(#SVGID_221_);}
	.st211{opacity:0.1;fill:url(#SVGID_222_);}
	.st212{opacity:0.8;fill:url(#SVGID_223_);}
	.st213{fill:url(#SVGID_224_);}
	.st214{fill:url(#SVGID_225_);}
	.st215{opacity:0.1;fill:url(#SVGID_226_);}
	.st216{opacity:0.8;fill:url(#SVGID_227_);}
	.st217{fill:url(#SVGID_228_);}
	.st218{fill:url(#SVGID_229_);}
	.st219{opacity:0.1;fill:url(#SVGID_230_);}
	.st220{opacity:0.8;fill:url(#SVGID_231_);}
	.st221{fill:url(#SVGID_232_);}
	.st222{fill:url(#SVGID_233_);}
	.st223{clip-path:url(#SVGID_235_);}
	.st224{opacity:0.8;fill:url(#SVGID_236_);}
	.st225{fill:url(#SVGID_237_);}
	.st226{fill:url(#SVGID_238_);}
	.st227{opacity:0.1;fill:url(#SVGID_239_);}
	.st228{clip-path:url(#SVGID_241_);}
	.st229{opacity:0.8;fill:url(#SVGID_242_);}
	.st230{fill:url(#SVGID_243_);}
	.st231{fill:url(#SVGID_244_);}
	.st232{opacity:0.1;fill:url(#SVGID_245_);}
	.st233{opacity:0.1;fill:url(#SVGID_246_);}
	.st234{clip-path:url(#SVGID_248_);}
	.st235{opacity:0.8;fill:url(#SVGID_249_);}
	.st236{fill:url(#SVGID_250_);}
	.st237{fill:url(#SVGID_251_);}
	.st238{opacity:0.1;fill:url(#SVGID_252_);}
	.st239{opacity:0.8;fill:url(#SVGID_253_);}
	.st240{fill:url(#SVGID_254_);}
	.st241{fill:url(#SVGID_255_);}
	.st242{fill:url(#SVGID_256_);}
	.st243{opacity:0.8;fill:url(#SVGID_257_);}
	.st244{opacity:0.1;fill:url(#SVGID_258_);}
	.st245{fill:url(#SVGID_259_);}
	.st246{fill:url(#SVGID_260_);}
	.st247{fill:url(#SVGID_261_);}
	.st248{opacity:0.1;fill:url(#SVGID_262_);}
	.st249{opacity:0.8;fill:url(#SVGID_263_);}
	.st250{fill:url(#SVGID_264_);}
	.st251{fill:url(#SVGID_265_);}
	.st252{opacity:0.1;fill:url(#SVGID_266_);}
	.st253{opacity:0.8;fill:url(#SVGID_267_);}
	.st254{fill:url(#SVGID_268_);}
	.st255{fill:url(#SVGID_269_);}
	.st256{opacity:0.1;fill:url(#SVGID_270_);}
	.st257{opacity:0.8;fill:url(#SVGID_271_);}
	.st258{fill:url(#SVGID_272_);}
	.st259{fill:url(#SVGID_273_);}
	.st260{opacity:0.1;fill:url(#SVGID_274_);}
	.st261{opacity:0.8;fill:url(#SVGID_275_);}
	.st262{fill:url(#SVGID_276_);}
	.st263{fill:url(#SVGID_277_);}
	.st264{opacity:0.1;fill:url(#SVGID_278_);}
	.st265{opacity:0.8;fill:url(#SVGID_279_);}
	.st266{fill:url(#SVGID_280_);}
	.st267{fill:url(#SVGID_281_);}
	.st268{opacity:0.1;fill:url(#SVGID_282_);}
	.st269{opacity:0.8;fill:url(#SVGID_283_);}
	.st270{fill:url(#SVGID_284_);}
	.st271{fill:url(#SVGID_285_);}
	.st272{opacity:0.8;fill:url(#SVGID_286_);}
	.st273{opacity:0.1;fill:url(#SVGID_287_);}
	.st274{fill:url(#SVGID_288_);}
	.st275{fill:url(#SVGID_289_);}
	.st276{opacity:0.1;fill:url(#SVGID_290_);}
	.st277{opacity:0.8;fill:url(#SVGID_291_);}
	.st278{fill:url(#SVGID_292_);}
	.st279{fill:url(#SVGID_293_);}
	.st280{opacity:0.1;fill:url(#SVGID_294_);}
	.st281{opacity:0.8;fill:url(#SVGID_295_);}
	.st282{fill:url(#SVGID_296_);}
	.st283{fill:url(#SVGID_297_);}
	.st284{opacity:0.8;fill:url(#SVGID_298_);}
	.st285{opacity:0.1;fill:url(#SVGID_299_);}
	.st286{fill:url(#SVGID_300_);}
	.st287{fill:url(#SVGID_301_);}
	.st288{fill:url(#SVGID_302_);}
	.st289{opacity:0.1;fill:url(#SVGID_303_);}
	.st290{opacity:0.8;fill:url(#SVGID_304_);}
	.st291{fill:url(#SVGID_305_);}
	.st292{fill:url(#SVGID_306_);}
	.st293{fill:url(#SVGID_307_);}
	.st294{opacity:0.8;fill:url(#SVGID_308_);}
	.st295{opacity:0.1;fill:url(#SVGID_309_);}
	.st296{fill:url(#SVGID_310_);}
	.st297{fill:url(#SVGID_311_);}
	.st298{fill:url(#SVGID_312_);}
	.st299{fill:none;stroke:#000000;stroke-miterlimit:10;}
</style>
<g id="Layer_2">
</g>
<g id="Layer_1">
	<g id="Layer_3">
	</g>
	<g>
		<g>
			<g>
				<linearGradient id="SVGID_1_" gradientUnits="userSpaceOnUse" x1="136.2546" y1="235.7837" x2="136.2546" y2="38.7443">
					<stop  offset="0" style="stop-color:#FFFFFF;stop-opacity:0.3"/>
					<stop  offset="0.117" style="stop-color:#F1F1F1;stop-opacity:0.4643"/>
					<stop  offset="0.2602" style="stop-color:#E9E9E9;stop-opacity:0.6653"/>
					<stop  offset="0.4986" style="stop-color:#E6E6E6"/>
					<stop  offset="0.7383" style="stop-color:#E9E9E9;stop-opacity:0.5219"/>
					<stop  offset="0.8823" style="stop-color:#F1F1F1;stop-opacity:0.2347"/>
					<stop  offset="1" style="stop-color:#FFFFFF;stop-opacity:0"/>
				</linearGradient>
				<path class="st0" d="M115.9,38.7c0,0-20.4,18.7-39.4,21.2c-7.3,1-16.6,4.8-20.7,8.7c-4.1,3.9-12.4,15.9-10.7,43.1
					s-3.1,24.5-3.3,48.7c-0.3,25.3-9.8,26.7-11.7,75.1h31c0,0,5.1-29,5.4-42.4c0.3-13.4,7.5-44.4,9.6-50.1c0,0,6.2,35,6.2,50.1
					c0,15.1-3,30.6-3,42.5H195c0,0-5.6-20.2-5.6-38s10.7-55.5,10.7-55.5s4.5,20.4,5.8,48.9c1,22.7,7.5,44.6,7.5,44.6h29
					c0,0-1.2-20.7-5.7-43.3c-5.3-26.9-1.4-32.6-5.9-58.1c-3.5-19.8,6.7-54.8-15.6-66.8c-11.4-6.1-16.4-7.8-23.6-9.7
					c-13.4-3.7-26.5-16.5-27.8-19.2C151.5,38.7,115.9,38.7,115.9,38.7z"/>
				<g>
					<path class="st3" d="M115.9,38.7c0,0-20.4,18.7-39.4,21.2c-7.3,1-16.6,4.8-20.7,8.7c-4.1,3.9-12.4,15.9-10.7,43.1
						s-3.1,24.5-3.3,48.7c-0.3,25.3-9.8,26.7-11.7,75.1h31c0,0,5.1-29,5.4-42.4c0.3-13.4,7.5-44.4,9.6-50.1c0,0,6.2,35,6.2,50.1
						c0,15.1-3,30.6-3,42.5H195c0,0-5.6-20.2-5.6-38s10.7-55.5,10.7-55.5s4.5,20.4,5.8,48.9c1,22.7,7.5,44.6,7.5,44.6h29
						c0,0-1.2-20.7-5.7-43.3c-5.3-26.9-1.4-32.6-5.9-58.1c-3.5-19.8,6.7-54.8-15.6-66.8c-11.4-6.1-16.4-7.8-23.6-9.7
						c-13.4-3.7-26.5-16.5-27.8-19.2C151.5,38.7,115.9,38.7,115.9,38.7z"/>
					<g>
						<path class="st3" d="M70.2,110.1c-0.1-1.3-0.2-2.8-0.1-4.3"/>
						<path class="st3" d="M76,143.2c-0.2-6.6-1.8-10.5-2.9-16.2"/>
					</g>
					<path class="st3" d="M205.2,115c0.6-1.6,0.6-1.6,1.1-3.2c0.4-1.5,0.8-2.9,1-4.2"/>
					<path class="st3" d="M200.1,142.2c0.9-6-2.6-11.7-0.3-15.3"/>
					<path class="st3" d="M149.3,66.7c-1,0.7-2,1.5-2.9,2.3v0"/>
					<path class="st3" d="M202.5,61.4c-8.1-2.8-13.2,0.2-27.5,0.5c-6.4,0.1-11.8,0.6-15.9,1.1c-1.7,0.2-3.4,0.6-5,1.2"/>
					<path class="st3" d="M74.5,60.2c9.3-1.8,18,0.2,31.8,0.4c6.2,0.1,11.5,0.6,15.4,1.1c3.3,0.4,6.4,0.7,9.2,2.1"/>
					<path class="st3" d="M59,197.8c-6.7-3.8-10.3-7.5-10.3-7.5"/>
					<path class="st3" d="M214.1,197.8c3.1-1.8,5.6-3.6,7.3-4.9"/>
					<path class="st3" d="M45.2,113.6c0.1,2.6,2.1,8.2,2.1,8.2"/>
					<path class="st3" d="M230.2,113.6c-0.1,2.6-2.1,8.2-2.1,8.2"/>
					<path class="st3" d="M138.3,165.6c0-1.2,0.2-2.5,0.2-3.4c0-2-0.2-3-0.2-3"/>
					<line class="st3" x1="138.3" y1="186.9" x2="138.3" y2="183.6"/>
					<g>
						<path class="st3" d="M138,195.2c0,3.2,0,15.1,0,18.9c0,0.5-0.2,1.1-0.6,1.5c-0.5,0.5-1.2,1.6-1.2,3.3c0,1.9,0.7,3,1.2,3.5
							c0.4,0.4,0.5,0.9,0.5,1.5c-0.1,6.7-0.3,11.8-0.3,11.8"/>
						<path class="st3" d="M139.9,220.3c-0.4,2.2-2.1,2.3-2.1,3.6"/>
						<path class="st3" d="M138,214.2c0,0.7,1.2,1.2,1.6,2.3"/>
					</g>
					<g>
						<path class="st3" d="M138.4,88.3c0-3.3-0.6-5.3-0.6-5.3"/>
						<g>
							<path class="st3" d="M138.8,104.3c0,10.1-0.4,15-1,19.7c-0.3,2.1-1.6,4.9-2.9,7.3"/>
							<path class="st3" d="M132.4,134.4c-0.9,0.7-2,1.3-3.1,1.8"/>
						</g>
					</g>
					<path class="st3" d="M108.5,55.5c0,0-6.2,3.1-11.3,4.9"/>
					<path class="st3" d="M178.8,60c1.2,0.5,2.4,1,3.5,1.4"/>
					<path class="st3" d="M174.1,57.8c0.6,0.3,1.1,0.6,1.8,0.9"/>
					<g>
						<g>
							<g>
								<path class="st44" d="M111.7,139.1c1.1-0.3,2.2-0.6,3.2-1"/>
								<path class="st44" d="M70.7,113.2c1.4,7.2,1.9,11.8,2.7,15c1.3,4.9,5.9,9.4,12.7,11.2c3.7,1,12.4,2.1,21.5,0.6"/>
							</g>
							<g>
								<path class="st44" d="M162.9,139.2c-1.7-0.4-3.4-1-5.1-1.6"/>
								<path class="st44" d="M203.6,119c-0.8,3.5-3.5,8-5.1,10.3c-3,4.4-4.3,8.3-11.1,10.1c-3.5,0.9-11.8,1.9-20.5,0.6"/>
							</g>
						</g>
					</g>
				</g>
			</g>
			<g>
				<linearGradient id="SVGID_2_" gradientUnits="userSpaceOnUse" x1="136.2546" y1="236.8554" x2="136.2546" y2="200.5844">
					<stop  offset="0.1" style="stop-color:#FFFFFF"/>
					<stop  offset="1" style="stop-color:#FFFFFF;stop-opacity:0"/>
				</linearGradient>
				<rect x="20.3" y="200.6" style="fill:url(#SVGID_2_);" width="231.9" height="36.3"/>
				
					<linearGradient id="SVGID_3_" gradientUnits="userSpaceOnUse" x1="318.2089" y1="-3404.219" x2="318.2089" y2="-3419.0049" gradientTransform="matrix(-1 0 0 -1 454.4635 -3366.0745)">
					<stop  offset="0.1" style="stop-color:#FFFFFF"/>
					<stop  offset="1" style="stop-color:#FFFFFF;stop-opacity:0"/>
				</linearGradient>
				<polygon class="st4" points="181.7,52.9 90.9,52.9 90.9,38.1 181.7,38.1 				"/>
			</g>
		</g>
		<g>
			<linearGradient id="SVGID_4_" gradientUnits="userSpaceOnUse" x1="213.9636" y1="167.3434" x2="213.9636" y2="44.1434">
				<stop  offset="5.000000e-02" style="stop-color:#F09D2D;stop-opacity:0"/>
				<stop  offset="0.5035" style="stop-color:#F09D2D"/>
				<stop  offset="0.9791" style="stop-color:#F09D2D;stop-opacity:0"/>
			</linearGradient>
			<path style="opacity:0.1;fill:url(#SVGID_4_);" d="M258.9,101.8c0,26.5-6.5,65.5-6.5,65.5l-18.9,0c0,0,0.1-8.9-0.4-14.1
				c-1.2-14.7-3-24.4-3-36.5c4.5-45-17.4-50.4-17.4-50.4c-16.1-9.1-29.4-8.5-43.7-22.1h83.4C252.4,44.1,258.9,75.3,258.9,101.8z"/>
			<path class="st2" d="M252.4,167.3c0,0,6.5-39,6.5-65.5s-6.5-57.7-6.5-57.7"/>
		</g>
		<g>
			
				<linearGradient id="SVGID_5_" gradientUnits="userSpaceOnUse" x1="-308.4221" y1="167.3434" x2="-308.4221" y2="44.1434" gradientTransform="matrix(-1 0 0 1 -245.7277 0)">
				<stop  offset="5.000000e-02" style="stop-color:#F09D2D;stop-opacity:0"/>
				<stop  offset="0.5035" style="stop-color:#F09D2D"/>
				<stop  offset="0.9791" style="stop-color:#F09D2D;stop-opacity:0"/>
			</linearGradient>
			<path style="opacity:0.1;fill:url(#SVGID_5_);" d="M16.1,101.8c0,26.5,6.5,65.5,6.5,65.5l18.9,0c0,0-0.1-8.9,0.4-14.1
				c1.2-14.7,4.5-20.7,3-36.5C40.3,71.7,61,65.1,61,65.1c5.8-3.3,14.1-4.4,20.1-6.1c10.6-3,18.4-7.4,28.1-14.9H22.6
				C22.6,44.1,16.1,75.3,16.1,101.8z"/>
			<path class="st2" d="M22.6,167.3c0,0-6.5-39-6.5-65.5s6.5-57.7,6.5-57.7"/>
		</g>
	</g>
</g>
<g id="Layer_4">
</g>
</svg>
