<?xml version="1.0" encoding="utf-8"?>
<!-- Generator: Adobe Illustrator 24.1.2, SVG Export Plug-In . SVG Version: 6.00 Build 0)  -->
<svg version="1.1" xmlns="http://www.w3.org/2000/svg" xmlns:xlink="http://www.w3.org/1999/xlink" x="0px" y="0px"
	 viewBox="0 0 275 275" style="enable-background:new 0 0 275 275;" xml:space="preserve">
<style type="text/css">
	.st0{opacity:0.8;fill:url(#SVGID_1_);}
	.st1{opacity:0.1;fill:url(#SVGID_2_);}
	.st2{fill:none;stroke:#F09D2D;stroke-width:2;stroke-linecap:round;stroke-miterlimit:10;stroke-dasharray:6,10;}
	.st3{fill:none;stroke:#999B9E;stroke-linecap:round;stroke-linejoin:round;stroke-miterlimit:10;}
	.st4{fill:url(#SVGID_3_);}
	.st5{opacity:0.5;fill:#999B9E;}
	.st6{fill:url(#SVGID_4_);}
	.st7{fill:url(#SVGID_5_);}
	.st8{opacity:0.1;fill:url(#SVGID_6_);}
	.st9{opacity:0.8;fill:url(#SVGID_7_);}
	.st10{fill:url(#SVGID_8_);}
	.st11{fill:url(#SVGID_9_);}
	.st12{opacity:0.1;fill:url(#SVGID_10_);}
	.st13{opacity:0.8;fill:url(#SVGID_11_);}
	.st14{fill:url(#SVGID_12_);}
	.st15{fill:url(#SVGID_13_);}
	.st16{opacity:0.1;fill:url(#SVGID_14_);}
	.st17{opacity:0.8;fill:url(#SVGID_15_);}
	.st18{fill:url(#SVGID_16_);}
	.st19{fill:url(#SVGID_17_);}
	.st20{opacity:0.8;fill:url(#SVGID_18_);}
	.st21{opacity:0.1;fill:url(#SVGID_19_);}
	.st22{fill:url(#SVGID_20_);}
	.st23{fill:url(#SVGID_21_);}
	.st24{opacity:0.1;fill:url(#SVGID_22_);}
	.st25{opacity:0.8;fill:url(#SVGID_23_);}
	.st26{fill:url(#SVGID_24_);}
	.st27{fill:url(#SVGID_25_);}
	.st28{opacity:0.1;fill:url(#SVGID_26_);}
	.st29{opacity:0.8;fill:url(#SVGID_27_);}
	.st30{fill:url(#SVGID_28_);}
	.st31{fill:url(#SVGID_29_);}
	.st32{clip-path:url(#SVGID_31_);}
	.st33{opacity:0.8;fill:url(#SVGID_32_);}
	.st34{fill:none;stroke:#999B9E;stroke-width:0.939;stroke-linecap:round;stroke-linejoin:round;stroke-miterlimit:10;}
	.st35{fill:none;stroke:#999B9E;stroke-width:1.1031;stroke-linecap:round;stroke-linejoin:round;stroke-miterlimit:10;}
	.st36{fill:none;stroke:#999B9E;stroke-width:1.0769;stroke-linecap:round;stroke-linejoin:round;stroke-miterlimit:10;}
	.st37{fill:none;stroke:#999B9E;stroke-width:1.1033;stroke-linecap:round;stroke-linejoin:round;stroke-miterlimit:10;}
	.st38{fill:url(#SVGID_33_);}
	.st39{fill:url(#SVGID_34_);}
	.st40{opacity:0.1;fill:url(#SVGID_35_);}
	.st41{opacity:0.1;fill:url(#SVGID_36_);}
	.st42{clip-path:url(#SVGID_38_);}
	.st43{opacity:0.8;fill:url(#SVGID_39_);}
	.st44{fill:none;stroke:#999B9E;stroke-width:1.0324;stroke-linecap:round;stroke-linejoin:round;stroke-miterlimit:10;}
	.st45{fill:url(#SVGID_40_);}
	.st46{fill:url(#SVGID_41_);}
	.st47{opacity:0.1;fill:url(#SVGID_42_);}
	.st48{opacity:0.1;fill:url(#SVGID_43_);}
	.st49{clip-path:url(#SVGID_45_);}
	.st50{opacity:0.8;fill:url(#SVGID_46_);}
	.st51{fill:url(#SVGID_47_);}
	.st52{fill:url(#SVGID_48_);}
	.st53{opacity:0.1;fill:url(#SVGID_49_);}
	.st54{opacity:0.1;fill:url(#SVGID_50_);}
	.st55{opacity:0.1;fill:url(#SVGID_51_);}
	.st56{opacity:0.1;fill:url(#SVGID_52_);}
	.st57{clip-path:url(#SVGID_54_);}
	.st58{opacity:0.8;fill:url(#SVGID_55_);}
	.st59{fill:none;stroke:#999B9E;stroke-width:0.9691;stroke-linecap:round;stroke-linejoin:round;stroke-miterlimit:10;}
	.st60{fill:none;stroke:#999B9E;stroke-width:1.0454;stroke-linecap:round;stroke-linejoin:round;stroke-miterlimit:10;}
	.st61{fill:url(#SVGID_56_);stroke:#999B9E;stroke-width:0.9691;stroke-linecap:round;stroke-linejoin:round;stroke-miterlimit:10;}
	.st62{fill:url(#SVGID_57_);stroke:#999B9E;stroke-width:0.9691;stroke-linecap:round;stroke-linejoin:round;stroke-miterlimit:10;}
	.st63{fill:url(#SVGID_58_);stroke:#999B9E;stroke-width:0.9691;stroke-linecap:round;stroke-linejoin:round;stroke-miterlimit:10;}
	.st64{fill:url(#SVGID_59_);stroke:#999B9E;stroke-width:0.9691;stroke-linecap:round;stroke-linejoin:round;stroke-miterlimit:10;}
	.st65{fill:url(#SVGID_60_);}
	.st66{fill:url(#SVGID_61_);}
	.st67{clip-path:url(#SVGID_63_);}
	.st68{opacity:0.8;fill:url(#SVGID_64_);}
	.st69{fill:url(#SVGID_65_);stroke:#999B9E;stroke-width:0.9691;stroke-linecap:round;stroke-linejoin:round;stroke-miterlimit:10;}
	.st70{fill:url(#SVGID_66_);stroke:#999B9E;stroke-width:0.9691;stroke-linecap:round;stroke-linejoin:round;stroke-miterlimit:10;}
	.st71{fill:url(#SVGID_67_);stroke:#999B9E;stroke-width:0.9691;stroke-linecap:round;stroke-linejoin:round;stroke-miterlimit:10;}
	.st72{fill:url(#SVGID_68_);stroke:#999B9E;stroke-width:0.9691;stroke-linecap:round;stroke-linejoin:round;stroke-miterlimit:10;}
	.st73{fill:url(#SVGID_69_);}
	.st74{fill:url(#SVGID_70_);}
	.st75{opacity:0.1;fill:url(#SVGID_71_);}
	.st76{opacity:0.1;fill:url(#SVGID_72_);}
	.st77{clip-path:url(#SVGID_74_);}
	.st78{opacity:0.8;fill:url(#SVGID_75_);}
	.st79{fill:url(#SVGID_76_);stroke:#999B9E;stroke-width:0.9691;stroke-linecap:round;stroke-linejoin:round;stroke-miterlimit:10;}
	.st80{fill:url(#SVGID_77_);stroke:#999B9E;stroke-width:0.9691;stroke-linecap:round;stroke-linejoin:round;stroke-miterlimit:10;}
	.st81{fill:url(#SVGID_78_);stroke:#999B9E;stroke-width:0.9691;stroke-linecap:round;stroke-linejoin:round;stroke-miterlimit:10;}
	.st82{fill:url(#SVGID_79_);stroke:#999B9E;stroke-width:0.9691;stroke-linecap:round;stroke-linejoin:round;stroke-miterlimit:10;}
	.st83{fill:none;stroke:#999B9E;stroke-width:1.1076;stroke-linecap:round;stroke-linejoin:round;stroke-miterlimit:10;}
	.st84{fill:url(#SVGID_80_);}
	.st85{fill:url(#SVGID_81_);}
	.st86{opacity:0.1;fill:url(#SVGID_82_);}
	.st87{opacity:0.1;fill:url(#SVGID_83_);}
	.st88{opacity:0.1;fill:url(#SVGID_84_);}
	.st89{opacity:0.1;fill:url(#SVGID_85_);}
	.st90{opacity:0.8;fill:url(#SVGID_86_);}
	.st91{fill:url(#SVGID_87_);}
	.st92{fill:url(#SVGID_88_);}
	.st93{opacity:0.8;fill:url(#SVGID_89_);}
	.st94{fill:url(#SVGID_90_);}
	.st95{fill:url(#SVGID_91_);}
	.st96{opacity:0.1;fill:url(#SVGID_92_);}
	.st97{opacity:0.1;fill:url(#SVGID_93_);}
	.st98{opacity:0.8;fill:url(#SVGID_94_);}
	.st99{fill:url(#SVGID_95_);}
	.st100{fill:url(#SVGID_96_);}
	.st101{opacity:0.1;fill:url(#SVGID_97_);}
	.st102{opacity:0.1;fill:url(#SVGID_98_);}
	.st103{opacity:0.8;clip-path:url(#SVGID_100_);fill:url(#SVGID_101_);}
	.st104{clip-path:url(#SVGID_100_);}
	.st105{fill:url(#SVGID_102_);}
	.st106{fill:url(#SVGID_103_);}
	.st107{opacity:0.1;fill:url(#SVGID_104_);}
	.st108{opacity:0.8;clip-path:url(#SVGID_106_);fill:url(#SVGID_107_);}
	.st109{clip-path:url(#SVGID_106_);}
	.st110{fill:url(#SVGID_108_);}
	.st111{fill:url(#SVGID_109_);}
	.st112{opacity:0.1;fill:url(#SVGID_110_);}
	.st113{clip-path:url(#SVGID_112_);}
	.st114{opacity:0.8;fill:url(#SVGID_113_);}
	.st115{fill:url(#SVGID_114_);}
	.st116{fill:url(#SVGID_115_);}
	.st117{opacity:0.1;fill:url(#SVGID_116_);}
	.st118{clip-path:url(#SVGID_118_);}
	.st119{opacity:0.8;fill:url(#SVGID_119_);}
	.st120{fill:url(#SVGID_120_);}
	.st121{fill:url(#SVGID_121_);}
	.st122{opacity:0.1;fill:url(#SVGID_122_);}
	.st123{clip-path:url(#SVGID_124_);}
	.st124{opacity:0.8;fill:url(#SVGID_125_);}
	.st125{opacity:0.1;fill:url(#SVGID_126_);}
	.st126{fill:url(#SVGID_127_);}
	.st127{fill:url(#SVGID_128_);}
	.st128{opacity:0.1;fill:url(#SVGID_129_);}
	.st129{clip-path:url(#SVGID_131_);}
	.st130{opacity:0.8;fill:url(#SVGID_132_);}
	.st131{fill:url(#SVGID_133_);}
	.st132{fill:url(#SVGID_134_);}
	.st133{opacity:0.1;fill:url(#SVGID_135_);}
	.st134{opacity:0.1;fill:url(#SVGID_136_);}
	.st135{opacity:0.8;fill:url(#SVGID_137_);}
	.st136{fill:url(#SVGID_138_);}
	.st137{fill:url(#SVGID_139_);}
	.st138{opacity:0.8;fill:url(#SVGID_140_);}
	.st139{fill:url(#SVGID_141_);}
	.st140{fill:url(#SVGID_142_);}
	.st141{opacity:0.1;fill:url(#SVGID_143_);}
	.st142{opacity:0.1;fill:url(#SVGID_144_);}
	.st143{opacity:0.8;fill:url(#SVGID_145_);}
	.st144{fill:url(#SVGID_146_);}
	.st145{fill:url(#SVGID_147_);}
	.st146{opacity:0.1;fill:url(#SVGID_148_);}
	.st147{opacity:0.1;fill:url(#SVGID_149_);}
	.st148{clip-path:url(#SVGID_151_);}
	.st149{opacity:0.8;fill:url(#SVGID_152_);}
	.st150{fill:url(#SVGID_153_);}
	.st151{fill:url(#SVGID_154_);}
	.st152{opacity:0.1;fill:url(#SVGID_155_);}
	.st153{opacity:0.1;fill:url(#SVGID_156_);}
	.st154{clip-path:url(#SVGID_158_);}
	.st155{opacity:0.8;fill:url(#SVGID_159_);}
	.st156{fill:url(#SVGID_160_);}
	.st157{fill:url(#SVGID_161_);}
	.st158{opacity:0.1;fill:url(#SVGID_162_);}
	.st159{opacity:0.1;fill:url(#SVGID_163_);}
	.st160{clip-path:url(#SVGID_165_);}
	.st161{opacity:0.8;fill:url(#SVGID_166_);}
	.st162{fill:url(#SVGID_167_);}
	.st163{fill:url(#SVGID_168_);}
	.st164{opacity:0.1;fill:url(#SVGID_169_);}
	.st165{opacity:0.1;fill:url(#SVGID_170_);}
	.st166{opacity:0.1;fill:url(#SVGID_171_);}
	.st167{opacity:0.1;fill:url(#SVGID_172_);}
	.st168{clip-path:url(#SVGID_174_);}
	.st169{opacity:0.8;fill:url(#SVGID_175_);}
	
		.st170{fill:url(#SVGID_176_);stroke:#999B9E;stroke-width:0.9691;stroke-linecap:round;stroke-linejoin:round;stroke-miterlimit:10;}
	
		.st171{fill:url(#SVGID_177_);stroke:#999B9E;stroke-width:0.9691;stroke-linecap:round;stroke-linejoin:round;stroke-miterlimit:10;}
	
		.st172{fill:url(#SVGID_178_);stroke:#999B9E;stroke-width:0.9691;stroke-linecap:round;stroke-linejoin:round;stroke-miterlimit:10;}
	
		.st173{fill:url(#SVGID_179_);stroke:#999B9E;stroke-width:0.9691;stroke-linecap:round;stroke-linejoin:round;stroke-miterlimit:10;}
	.st174{fill:url(#SVGID_180_);}
	.st175{fill:url(#SVGID_181_);}
	.st176{clip-path:url(#SVGID_183_);}
	.st177{opacity:0.8;fill:url(#SVGID_184_);}
	
		.st178{fill:url(#SVGID_185_);stroke:#999B9E;stroke-width:0.9691;stroke-linecap:round;stroke-linejoin:round;stroke-miterlimit:10;}
	
		.st179{fill:url(#SVGID_186_);stroke:#999B9E;stroke-width:0.9691;stroke-linecap:round;stroke-linejoin:round;stroke-miterlimit:10;}
	
		.st180{fill:url(#SVGID_187_);stroke:#999B9E;stroke-width:0.9691;stroke-linecap:round;stroke-linejoin:round;stroke-miterlimit:10;}
	
		.st181{fill:url(#SVGID_188_);stroke:#999B9E;stroke-width:0.9691;stroke-linecap:round;stroke-linejoin:round;stroke-miterlimit:10;}
	.st182{fill:url(#SVGID_189_);}
	.st183{fill:url(#SVGID_190_);}
	.st184{opacity:0.1;fill:url(#SVGID_191_);}
	.st185{opacity:0.1;fill:url(#SVGID_192_);}
	.st186{clip-path:url(#SVGID_194_);}
	.st187{opacity:0.8;fill:url(#SVGID_195_);}
	
		.st188{fill:url(#SVGID_196_);stroke:#999B9E;stroke-width:0.9691;stroke-linecap:round;stroke-linejoin:round;stroke-miterlimit:10;}
	
		.st189{fill:url(#SVGID_197_);stroke:#999B9E;stroke-width:0.9691;stroke-linecap:round;stroke-linejoin:round;stroke-miterlimit:10;}
	
		.st190{fill:url(#SVGID_198_);stroke:#999B9E;stroke-width:0.9691;stroke-linecap:round;stroke-linejoin:round;stroke-miterlimit:10;}
	
		.st191{fill:url(#SVGID_199_);stroke:#999B9E;stroke-width:0.9691;stroke-linecap:round;stroke-linejoin:round;stroke-miterlimit:10;}
	.st192{fill:url(#SVGID_200_);}
	.st193{fill:url(#SVGID_201_);}
	.st194{opacity:0.1;fill:url(#SVGID_202_);}
	.st195{opacity:0.1;fill:url(#SVGID_203_);}
	.st196{opacity:0.8;clip-path:url(#SVGID_205_);fill:url(#SVGID_206_);}
	.st197{clip-path:url(#SVGID_205_);}
	.st198{fill:url(#SVGID_207_);}
	.st199{fill:url(#SVGID_208_);}
	.st200{opacity:0.1;fill:url(#SVGID_209_);}
	.st201{opacity:0.8;clip-path:url(#SVGID_211_);fill:url(#SVGID_212_);}
	.st202{clip-path:url(#SVGID_211_);}
	.st203{fill:url(#SVGID_213_);}
	.st204{fill:url(#SVGID_214_);}
	.st205{opacity:0.1;fill:url(#SVGID_215_);}
	.st206{clip-path:url(#SVGID_217_);}
	.st207{opacity:0.8;fill:url(#SVGID_218_);}
	.st208{opacity:0.1;fill:url(#SVGID_219_);}
	.st209{fill:url(#SVGID_220_);}
	.st210{fill:url(#SVGID_221_);}
	.st211{opacity:0.1;fill:url(#SVGID_222_);}
	.st212{opacity:0.8;fill:url(#SVGID_223_);}
	.st213{fill:url(#SVGID_224_);}
	.st214{fill:url(#SVGID_225_);}
	.st215{opacity:0.1;fill:url(#SVGID_226_);}
	.st216{opacity:0.8;fill:url(#SVGID_227_);}
	.st217{fill:url(#SVGID_228_);}
	.st218{fill:url(#SVGID_229_);}
	.st219{opacity:0.1;fill:url(#SVGID_230_);}
	.st220{opacity:0.8;fill:url(#SVGID_231_);}
	.st221{fill:url(#SVGID_232_);}
	.st222{fill:url(#SVGID_233_);}
	.st223{clip-path:url(#SVGID_235_);}
	.st224{opacity:0.8;fill:url(#SVGID_236_);}
	.st225{fill:url(#SVGID_237_);}
	.st226{fill:url(#SVGID_238_);}
	.st227{opacity:0.1;fill:url(#SVGID_239_);}
	.st228{clip-path:url(#SVGID_241_);}
	.st229{opacity:0.8;fill:url(#SVGID_242_);}
	.st230{fill:url(#SVGID_243_);}
	.st231{fill:url(#SVGID_244_);}
	.st232{opacity:0.1;fill:url(#SVGID_245_);}
	.st233{opacity:0.1;fill:url(#SVGID_246_);}
	.st234{clip-path:url(#SVGID_248_);}
	.st235{opacity:0.8;fill:url(#SVGID_249_);}
	.st236{fill:url(#SVGID_250_);}
	.st237{fill:url(#SVGID_251_);}
	.st238{opacity:0.1;fill:url(#SVGID_252_);}
	.st239{opacity:0.8;fill:url(#SVGID_253_);}
	.st240{fill:url(#SVGID_254_);}
	.st241{fill:url(#SVGID_255_);}
	.st242{fill:url(#SVGID_256_);}
	.st243{opacity:0.8;fill:url(#SVGID_257_);}
	.st244{opacity:0.1;fill:url(#SVGID_258_);}
	.st245{fill:url(#SVGID_259_);}
	.st246{fill:url(#SVGID_260_);}
	.st247{fill:url(#SVGID_261_);}
	.st248{opacity:0.1;fill:url(#SVGID_262_);}
	.st249{opacity:0.8;fill:url(#SVGID_263_);}
	.st250{fill:url(#SVGID_264_);}
	.st251{fill:url(#SVGID_265_);}
	.st252{opacity:0.1;fill:url(#SVGID_266_);}
	.st253{opacity:0.8;fill:url(#SVGID_267_);}
	.st254{fill:url(#SVGID_268_);}
	.st255{fill:url(#SVGID_269_);}
	.st256{opacity:0.1;fill:url(#SVGID_270_);}
	.st257{opacity:0.8;fill:url(#SVGID_271_);}
	.st258{fill:url(#SVGID_272_);}
	.st259{fill:url(#SVGID_273_);}
	.st260{opacity:0.1;fill:url(#SVGID_274_);}
	.st261{opacity:0.8;fill:url(#SVGID_275_);}
	.st262{fill:url(#SVGID_276_);}
	.st263{fill:url(#SVGID_277_);}
	.st264{opacity:0.1;fill:url(#SVGID_278_);}
	.st265{opacity:0.8;fill:url(#SVGID_279_);}
	.st266{fill:url(#SVGID_280_);}
	.st267{fill:url(#SVGID_281_);}
	.st268{opacity:0.1;fill:url(#SVGID_282_);}
	.st269{opacity:0.8;fill:url(#SVGID_283_);}
	.st270{fill:url(#SVGID_284_);}
	.st271{fill:url(#SVGID_285_);}
	.st272{opacity:0.8;fill:url(#SVGID_286_);}
	.st273{opacity:0.1;fill:url(#SVGID_287_);}
	.st274{fill:url(#SVGID_288_);}
	.st275{fill:url(#SVGID_289_);}
	.st276{opacity:0.1;fill:url(#SVGID_290_);}
	.st277{opacity:0.8;fill:url(#SVGID_291_);}
	.st278{fill:url(#SVGID_292_);}
	.st279{fill:url(#SVGID_293_);}
	.st280{opacity:0.1;fill:url(#SVGID_294_);}
	.st281{opacity:0.8;fill:url(#SVGID_295_);}
	.st282{fill:url(#SVGID_296_);}
	.st283{fill:url(#SVGID_297_);}
	.st284{opacity:0.8;fill:url(#SVGID_298_);}
	.st285{opacity:0.1;fill:url(#SVGID_299_);}
	.st286{fill:url(#SVGID_300_);}
	.st287{fill:url(#SVGID_301_);}
	.st288{fill:url(#SVGID_302_);}
	.st289{opacity:0.1;fill:url(#SVGID_303_);}
	.st290{opacity:0.8;fill:url(#SVGID_304_);}
	.st291{fill:url(#SVGID_305_);}
	.st292{fill:url(#SVGID_306_);}
	.st293{fill:url(#SVGID_307_);}
	.st294{opacity:0.8;fill:url(#SVGID_308_);}
	.st295{opacity:0.1;fill:url(#SVGID_309_);}
	.st296{fill:url(#SVGID_310_);}
	.st297{fill:url(#SVGID_311_);}
	.st298{fill:url(#SVGID_312_);}
	.st299{fill:none;stroke:#000000;stroke-miterlimit:10;}
</style>
<g id="Layer_2">
</g>
<g id="Layer_1">
	<g id="Layer_3">
	</g>
	<g>
		<g>
			<linearGradient id="SVGID_1_" gradientUnits="userSpaceOnUse" x1="73.4536" y1="236.5518" x2="73.4536" y2="137.7958">
				<stop  offset="5.000000e-02" style="stop-color:#F09D2D;stop-opacity:0"/>
				<stop  offset="0.5035" style="stop-color:#F09D2D"/>
				<stop  offset="0.9791" style="stop-color:#F09D2D;stop-opacity:0"/>
			</linearGradient>
			<path style="opacity:0.1;fill:url(#SVGID_1_);" d="M89.4,236.6H63c0,0-7-30.1-7-50.3s6-48.4,6-48.4H91l-2.8,11l-2.8,13.8
				l-0.7,18.5l0.9,22.5l3.5,22.3L89.4,236.6z"/>
			<path class="st2" d="M61.9,137.8c0,0-6,28.3-6,49.1s7,49.7,7,49.7"/>
		</g>
		<g>
			<linearGradient id="SVGID_2_" gradientUnits="userSpaceOnUse" x1="142.842" y1="252.5002" x2="142.842" y2="22.8083">
				<stop  offset="0" style="stop-color:#FFFFFF;stop-opacity:0.3"/>
				<stop  offset="0.117" style="stop-color:#F1F1F1;stop-opacity:0.4643"/>
				<stop  offset="0.2602" style="stop-color:#E9E9E9;stop-opacity:0.6653"/>
				<stop  offset="0.4986" style="stop-color:#E6E6E6"/>
				<stop  offset="0.7383" style="stop-color:#E9E9E9;stop-opacity:0.5219"/>
				<stop  offset="0.8823" style="stop-color:#F1F1F1;stop-opacity:0.2347"/>
				<stop  offset="1" style="stop-color:#FFFFFF;stop-opacity:0"/>
			</linearGradient>
			<path style="opacity:0.8;fill:url(#SVGID_2_);" d="M199.4,71.4c-0.2-0.7-0.4-1.5-0.7-2.3c-0.1-0.3-0.2-0.5-0.3-0.8
				c-0.1-0.3-0.2-0.6-0.3-0.8c-0.1-0.3-0.2-0.6-0.3-0.9c-0.2-0.6-0.4-1.2-0.6-1.8c-0.2-0.6-0.4-1.2-0.7-1.8
				c-0.2-0.6-0.5-1.2-0.7-1.8c-0.2-0.6-0.5-1.2-0.7-1.8c-0.2-0.6-0.5-1.2-0.8-1.8c0,0,0,0,0,0l0,0c-0.1-0.5-0.4-0.9-0.6-1.4
				c0,0,0,0,0,0c0,0,0,0,0,0c0,0,0,0,0,0c-1-2.3-2.1-4.5-3.1-6.3c-0.1-0.2-0.2-0.4-0.3-0.6c-2.2-3.9-5.4-8.9-8.4-13.1
				c-1.8-2.6-3.7-4.8-5.2-6.4c-0.1-0.1-0.3-0.3-0.4-0.4c-0.3-0.3-0.7-0.7-1.1-1.1c0,0-0.1-0.1-0.1-0.2c-1.5-1.7-2.7-2.7-4.2-5.1
				L122.3,24c1.7,4.5,2.9,7.1,2.9,7.1c-0.3,2.5-1.2,4.6-2.4,6.4c-3.4,5.2-9.1,8.2-10.7,11.2c-0.2,0.3-0.4,0.7-0.7,1.1
				c0,0-0.1,0-0.1,0.1c-0.1,0.1-0.3,0.3-0.4,0.5c0,0,0,0-0.1,0.1c-2.6,2.7-7.8,6.6-10.4,13c-3.2,7.9-7.5,25.9-8.4,35.5
				c-0.9,9.4,2.2,27.9,2.3,28.5l0,0l0,0c0,0,0,0,0,0l0,0c-0.2,5.7-7.1,15.8-8.8,34.9s-1.4,40.6,3.5,63.7c-0.1,7.4,0.9,8.5,1,12.9
				c0.2,6.9,1.2,13.5,1.2,13.5h15.8v0v0h0.3h10.3l38.6,0.2l31.7-0.8c0,0-2.6-20.5-6.8-30.7c-0.6-1.5-1.1-3-1.6-4.7
				c-0.4-1.3-0.7-2.7-1-4.1l0,0l0,0c0.8-1.6,1.4-2.8,2-3.7l0,0c1.7-2.8,2.8-3.6,3.5-5.4c1.2-2.8,0.4-9.6,0-13.5
				c-0.4-3.7,3.7-37.5,5-62.7c0,0,0,0,0,0c0,0,0,0,0,0c0.3-0.8,0.7-1.4,1-2c6.3-10.9,8-16.7,9.6-23.5
				C201.2,94.7,201.7,80,199.4,71.4z"/>
			<g>
				<g>
					<g>
						<g>
							<g>
								<g>
									<path class="st3" d="M178.5,212.2L178.5,212.2c0.3,1.4,0.6,2.8,1,4.1c0.5,1.6,1,3.2,1.6,4.7c4.2,10.2,6.8,30.7,6.8,30.7
										l-31.7,0.8l-38.6-0.2h-10.3H91.3c0,0-1-6.6-1.2-13.5c-0.1-4.4-1.1-5.5-1-12.9c-4.9-23.1-5.1-44.6-3.5-63.7
										s8.6-29.2,8.8-34.9l0,0c-0.1-0.6-3.3-19.1-2.3-28.5c0.9-9.6,5.2-27.6,8.4-35.5c2.6-6.4,7.8-10.3,10.4-13c0,0,0,0,0.1-0.1
										c0.2-0.2,0.3-0.3,0.4-0.5c0,0,0-0.1,0.1-0.1c0.3-0.4,0.6-0.7,0.7-1.1c1.5-3,7.3-6,10.7-11.2c1.2-1.8,2.1-3.9,2.4-6.4
										c0,0-1.2-2.6-2.9-7.1l48.6-1.2c1.5,2.4,2.7,3.4,4.2,5.1c0,0.1,0.1,0.1,0.1,0.2c0.3,0.4,0.7,0.8,1.1,1.1
										c0.1,0.1,0.3,0.3,0.4,0.4c1.5,1.6,3.4,3.8,5.2,6.4c3.1,4.2,6.2,9.2,8.4,13.1c0.1,0.2,0.2,0.4,0.3,0.6c1,1.8,2.1,4,3.1,6.3
										c0,0,0,0,0,0c0,0,0,0,0,0c0,0,0,0.1,0,0.1c0.2,0.4,0.4,0.9,0.6,1.4c0.3,0.6,0.5,1.2,0.8,1.8c0.3,0.6,0.5,1.2,0.7,1.8
										c0.2,0.6,0.5,1.2,0.7,1.8c0.2,0.6,0.4,1.2,0.7,1.8c0.2,0.6,0.4,1.2,0.6,1.8c0.1,0.3,0.2,0.6,0.3,0.9
										c0.1,0.3,0.2,0.6,0.3,0.8c0.1,0.3,0.2,0.6,0.3,0.8c0.3,0.8,0.5,1.6,0.7,2.3c2.3,8.6,1.8,23.3,0.2,30.1
										c-1.6,6.8-3.3,12.6-9.6,23.5c-0.3,0.5-0.7,1.2-1,2c0,0,0,0,0,0"/>
									<path class="st3" d="M89.3,230.2c0-4,1.1-12.9,3.3-20.4"/>
									<g>
										<line class="st3" x1="106.8" y1="231.1" x2="106.2" y2="235.8"/>
									</g>
									<path class="st3" d="M103.2,162.3c0,0,0.4,0.5,1,1.2c0.1,0.1,0.2,0.2,0.2,0.3"/>
									<path class="st3" d="M94.4,127.3L94.4,127.3c0.7,2.2,2.8,3.6,5.2,3.6"/>
									<path class="st3" d="M102.5,130.8c0.6,0,1.3-0.1,1.9-0.2"/>
									<path class="st3" d="M141.6,58.1l2.1-4c1.3-2.4,2.3-3.6,4.4-5.5c0,0,0,0,0,0c1.1-0.9,0.4-2.7-1-2.7c-0.2,0-0.5,0-0.7,0
										l-2.8,0.2"/>
									<path class="st3" d="M110.9,50.3L110.9,50.3c0.8-1.1,2.1-1.7,3.5-1.9l25.2-2"/>
									<path class="st3" d="M194.5,57.6c-0.9-2.7-3.9-6.1-6.4-7.4"/>
									<path class="st3" d="M176.7,50.4l1.1,0.5c1.3,0.6,2.4,1.6,2.9,2.9l0,0"/>
									<path class="st3" d="M130.7,133.5c-1.4,0.1-2.7,0.3-3.7,0.3"/>
									<path class="st3" d="M143.9,131.6c-2.1,0.3-5.6,0.9-9.1,1.3"/>
									<path class="st3" d="M144.4,142.8c-0.8,0.4-2.8,1.4-5.1,2.4"/>
									<path class="st3" d="M107.1,252.3c-1.4-6.3-1-11-1-11"/>
								</g>
								<path class="st3" d="M193.2,85.3c0.5-2.4,0.7-2.9,0.7-2.9"/>
								<path class="st3" d="M133.8,83.9c0,0,1.4,5,4.7,8.9c1.9,2.3,3.3,6,4.1,9.8l0,0c0.5,2.5,0.8,5,0.7,7.1
									c0,2.9,0.4,18.8,1.1,33.2c0.6,10.6,1.3,20.5,2.1,24c2,8.3,4.1,10.9,3.9,16.2c-0.2,5.3-9.9,19-14.9,33.1
									c-3,8.5-11.3,24.1-17.9,36.2l38.6,0.2c6.9-10.3,15.6-24.4,20.6-36.4c0.6-1.5,1.2-2.7,1.7-3.8l0,0c0.8-1.6,1.4-2.8,2-3.7l0,0
									c1.7-2.8,2.8-3.6,3.5-5.4c1.2-2.8,0.4-9.6,0-13.5c-0.4-3.7,3.7-37.5,5-62.7c0,0,0,0,0,0c0.1-2.2,0.2-4.4,0.3-6.4
									c0.4-14,1.8-24.2,3-30.5"/>
								<path class="st3" d="M142.5,102.5c-0.6-2.3-4-4.2-4-4.2"/>
								<g>
									<path class="st3" d="M170.1,195.5L170.1,195.5c-1.8,1.7-3,3.8-3.4,6.2l-0.3,1.9"/>
									<line class="st3" x1="172" y1="193.3" x2="173" y2="192.4"/>
								</g>
								<line class="st3" x1="180.5" y1="208.5" x2="180.4" y2="206"/>
								<g>
									<path class="st3" d="M125.1,41.1c0.5-0.8,1-1.6,1.2-2.2"/>
									<path class="st3" d="M119.1,48.2c0,0,2.1-2.2,4.1-4.6"/>
								</g>
							</g>
						</g>
					</g>
					<g>
						<linearGradient id="SVGID_3_" gradientUnits="userSpaceOnUse" x1="143.8239" y1="253.4048" x2="143.8239" y2="217.1337">
							<stop  offset="0.1" style="stop-color:#FFFFFF"/>
							<stop  offset="1" style="stop-color:#FFFFFF;stop-opacity:0"/>
						</linearGradient>
						<rect x="68.6" y="217.1" class="st4" width="150.5" height="36.3"/>
						<linearGradient id="SVGID_4_" gradientUnits="userSpaceOnUse" x1="158.5875" y1="36.3753" x2="158.5875" y2="21.5952">
							<stop  offset="0" style="stop-color:#FFFFFF;stop-opacity:0"/>
							<stop  offset="0.9" style="stop-color:#FFFFFF"/>
						</linearGradient>
						<rect x="109.9" y="21.6" class="st6" width="97.3" height="14.8"/>
					</g>
				</g>
			</g>
		</g>
	</g>
</g>
<g id="Layer_4">
</g>
</svg>
